<?xml version="1.0" encoding="UTF-8"?>
<svg version="1.1" xmlns="http://www.w3.org/2000/svg" width="192" height="192">
<path d="M0 0 C63.36 0 126.72 0 192 0 C192 63.36 192 126.72 192 192 C128.64 192 65.28 192 0 192 C0 128.64 0 65.28 0 0 Z " fill="#010201" transform="translate(0,0)"/>
<path d="M0 0 C1.40520149 0.7175219 1.40520149 0.7175219 2.83879089 1.44953918 C4.09319797 2.08479108 5.34770465 2.71984632 6.60229492 3.35473633 C7.52392048 3.82632549 7.52392048 3.82632549 8.46416473 4.30744171 C12.35482318 6.27036212 16.25070226 7.86166356 20.36328125 9.32421875 C23.03369141 10.79833984 23.03369141 10.79833984 25 13 C25.96608541 18.185092 25.69421485 23.08562087 25.33642578 28.32565308 C25.0900498 32.43977859 25.11363853 36.52968802 25.19921875 40.6484375 C25.18360397 41.39628006 25.1679892 42.14412262 25.15190125 42.91462708 C25.2143672 46.10265003 25.3929235 48.19490395 27.34631348 50.78546143 C30.23866571 53.56021529 32.92057543 55.54045909 36.8828125 56.4375 C43.18370574 58.19984757 48.64265919 61.34059332 54.375 64.4375 C56.52692223 65.55410926 58.68055584 66.66742689 60.8359375 67.77734375 C68.29866627 71.65653068 75.64869546 75.72560572 82.97265625 79.859375 C86.63944222 81.92238368 90.32036773 83.96001868 94 86 C94 88.97 94 91.94 94 95 C90.30121262 96.54481929 86.58973057 98.05646767 82.875 99.5625 C81.82828125 100.00013672 80.7815625 100.43777344 79.703125 100.88867188 C78.68476562 101.29794922 77.66640625 101.70722656 76.6171875 102.12890625 C75.68503418 102.51119385 74.75288086 102.89348145 73.79248047 103.28735352 C69.68385589 104.33588256 66.57911881 103.73096837 62.75952148 101.96289062 C62.05384033 101.53169922 61.34815918 101.10050781 60.62109375 100.65625 C59.79673828 100.1602832 58.97238281 99.66431641 58.12304688 99.15332031 C56.79370117 98.33492676 56.79370117 98.33492676 55.4375 97.5 C53.47848534 96.31668005 51.51881452 95.13444591 49.55859375 93.953125 C48.50784668 93.31697266 47.45709961 92.68082031 46.37451172 92.02539062 C42.79834246 89.87896463 39.20265282 87.76935289 35.59765625 85.671875 C34.96758163 85.30489502 34.33750702 84.93791504 33.68833923 84.55981445 C31.19177508 83.10617187 28.69497093 81.65296348 26.19577026 80.20385742 C25.32047165 79.69592651 25.32047165 79.69592651 24.42749023 79.17773438 C23.84852493 78.84302628 23.26955963 78.50831818 22.67304993 78.16346741 C21.51517699 77.48107762 20.36676474 76.78237722 19.22843933 76.06785583 C16.21672796 74.18923649 13.41867082 72.74430165 10.04248047 71.62719727 C5.64873592 69.95075654 2.33925668 68.22197676 0 64 C-2.23749102 54.17890558 -1.38031635 43.71238203 -0.96130371 33.71405029 C-0.81724289 29.91396232 -0.75397396 26.11258676 -0.68359375 22.31054688 C-0.53409978 14.8701475 -0.29569803 7.4361781 0 0 Z " fill="#044BF6" transform="translate(37,61)"/>
<path d="M0 0 C1.34094727 0.77089966 1.34094727 0.77089966 2.70898438 1.55737305 C3.70027344 2.12262695 4.6915625 2.68788086 5.71289062 3.27026367 C6.73253906 3.86387695 7.7521875 4.45749023 8.80273438 5.0690918 C9.82238281 5.65110352 10.84203125 6.23311523 11.89257812 6.83276367 C16.80933409 9.6555826 21.64328989 12.52529896 26.30273438 15.7565918 C24.7128651 19.72191281 21.94314832 22.34433675 18.92773438 25.2565918 C18.445625 25.72967773 17.96351562 26.20276367 17.46679688 26.69018555 C16.08184669 28.04879157 14.69237673 29.4027855 13.30273438 30.7565918 C12.26246094 31.94768555 12.26246094 31.94768555 11.20117188 33.1628418 C9.30273438 34.7565918 9.30273438 34.7565918 7.44726562 34.7331543 C3.35004015 32.86738678 -0.45248755 30.46529914 -4.31054688 28.1550293 C-9.31617565 26.08811453 -12.39595623 26.80350495 -17.34057617 28.85131836 C-20.38595271 30.24247579 -23.38679928 31.70363095 -26.38476562 33.1940918 C-27.41666016 33.6974707 -28.44855469 34.20084961 -29.51171875 34.71948242 C-34.7070181 37.23792217 -34.7070181 37.23792217 -39.81616211 39.92333984 C-42.99935059 41.33336221 -45.37692133 40.55709409 -48.69726562 39.7565918 C-51.37565446 38.49984132 -53.83519801 36.97897669 -56.32226562 35.3815918 C-56.96421875 34.98198242 -57.60617188 34.58237305 -58.26757812 34.1706543 C-59.51167394 33.39564379 -60.75302979 32.61621246 -61.99121094 31.83178711 C-64.20484536 30.43670325 -66.44759939 29.09260048 -68.69726562 27.7565918 C-67.69726562 24.7565918 -67.69726562 24.7565918 -64.96704102 23.22949219 C-63.74782578 22.67697217 -62.52330482 22.13607462 -61.29492188 21.60424805 C-60.63373352 21.30763779 -59.97254517 21.01102753 -59.2913208 20.70542908 C-57.11849198 19.73318534 -54.93944304 18.7758713 -52.75976562 17.8190918 C-50.50405781 16.81785303 -48.24970093 15.81362107 -45.99552917 14.80892944 C-44.46792534 14.12820397 -42.93977285 13.44870846 -41.41108704 12.77041626 C-36.54872296 10.60680526 -31.7281958 8.37070594 -26.93164062 6.06518555 C-25.75722412 5.50500732 -24.58280762 4.9448291 -23.37280273 4.36767578 C-21.17532549 3.31496055 -18.98313529 2.25111737 -16.79711914 1.17480469 C-15.81155029 0.70679443 -14.82598145 0.23878418 -13.81054688 -0.2434082 C-12.96274658 -0.6559082 -12.11494629 -1.0684082 -11.24145508 -1.4934082 C-7.03721699 -2.73277289 -3.9085592 -1.80180051 0 0 Z " fill="#F9F9F9" transform="translate(105.697265625,30.243408203125)"/>
<path d="M0 0 C3.60978077 0.34564405 5.61188587 1.64024755 8.6796875 3.56542969 C9.23758972 3.91049561 9.79549194 4.25556152 10.37030029 4.61108398 C11.56668789 5.35245136 12.76003153 6.09874952 13.95056152 6.8494873 C17.08117523 8.8234084 20.23343329 10.7622712 23.3828125 12.70605469 C24.01270081 13.09621765 24.64258911 13.48638062 25.29156494 13.8883667 C31.7850443 17.90027497 38.40143808 21.68397425 45.0546875 25.42382812 C46.58233855 26.28439645 48.10667294 27.15089032 49.62695312 28.02441406 C51.12435702 28.87988158 52.63442998 29.71342908 54.15429688 30.52832031 C56.18711942 31.67389866 58.04045959 32.74097707 59.8046875 34.26855469 C60.3046875 37.08105469 60.3046875 37.08105469 59.8046875 39.26855469 C57.05509209 40.72765179 54.30494029 42.18569711 51.5546875 43.64355469 C50.77738281 44.05605469 50.00007813 44.46855469 49.19921875 44.89355469 C48.44511719 45.29316406 47.69101563 45.69277344 46.9140625 46.10449219 C46.22280273 46.47106934 45.53154297 46.83764648 44.81933594 47.21533203 C44.15450195 47.56289551 43.48966797 47.91045898 42.8046875 48.26855469 C42.16305664 48.66381348 41.52142578 49.05907227 40.86035156 49.46630859 C38.10423117 50.54191567 36.60974481 50.12285924 33.8046875 49.26855469 C31.67431641 48.25976562 31.67431641 48.25976562 29.53125 47.00292969 C28.71760986 46.53129395 27.90396973 46.0596582 27.06567383 45.57373047 C26.19579834 45.06052246 25.32592285 44.54731445 24.4296875 44.01855469 C22.55120141 42.92668568 20.67227887 41.83556728 18.79296875 40.74511719 C17.81537598 40.17567383 16.8377832 39.60623047 15.83056641 39.01953125 C9.85177415 35.55980089 3.82068483 32.19195094 -2.20263672 28.81054688 C-3.99196641 27.80246477 -5.77541875 26.78386492 -7.55224609 25.75390625 C-9.36730151 24.73388065 -11.21752515 23.77476378 -13.09228516 22.86914062 C-15.76434518 21.50282632 -17.99677627 20.31447535 -20.1953125 18.26855469 C-21.02105293 15.11018671 -20.83150026 12.44949347 -20.1953125 9.26855469 C-19.68556885 9.03144775 -19.1758252 8.79434082 -18.65063477 8.55004883 C-16.35197233 7.47929876 -14.05487956 6.40522274 -11.7578125 5.33105469 C-10.95537109 4.95787109 -10.15292969 4.5846875 -9.32617188 4.20019531 C-8.56240234 3.84248047 -7.79863281 3.48476562 -7.01171875 3.11621094 C-6.30474854 2.7862915 -5.59777832 2.45637207 -4.86938477 2.11645508 C-0.91066059 0.11140199 -0.91066059 0.11140199 0 0 Z " fill="#F9F9F9" transform="translate(94.1953125,90.7314453125)"/>
<path d="M0 0 C1.58470342 0.85162211 3.16765077 1.70651165 4.75 2.5625 C5.63171875 3.03816406 6.5134375 3.51382813 7.421875 4.00390625 C8.19984436 4.45836121 8.19984436 4.45836121 8.99353027 4.92199707 C11.11567431 6.10497117 11.11567431 6.10497117 13.93322754 7.21765137 C17.42665222 8.84977196 20.13755325 10.40447074 23 13 C24.65739648 17.7960582 24.40750297 22.46122838 24.171875 27.46484375 C24.14946362 28.86724046 24.13239609 30.26973181 24.12042236 31.67225647 C24.07482083 35.3458779 23.95719452 39.01370989 23.82397461 42.68505859 C23.70070977 46.43833056 23.64630739 50.19254861 23.5859375 53.94726562 C23.45763336 61.30080356 23.25315073 68.64958772 23 76 C19.04692273 74.72392495 15.62825045 73.37317274 12.07421875 71.21484375 C11.19572266 70.68439453 10.31722656 70.15394531 9.41210938 69.60742188 C8.06342773 68.78081055 8.06342773 68.78081055 6.6875 67.9375 C5.76904297 67.38255859 4.85058594 66.82761719 3.90429688 66.25585938 C-2.83129699 62.16870301 -2.83129699 62.16870301 -4 61 C-4.15988491 58.48119483 -4.25934225 55.98657734 -4.31640625 53.46484375 C-4.33718735 52.71159317 -4.35796844 51.95834259 -4.37937927 51.18226624 C-4.44495425 48.7674401 -4.50379621 46.35250202 -4.5625 43.9375 C-4.6056777 42.30402471 -4.64929173 40.6705609 -4.69335938 39.03710938 C-4.80064362 35.02485536 -4.90188821 31.01248836 -5 27 C-9.29 24.69 -13.58 22.38 -18 20 C-15.59974697 15.99957828 -14.59889028 14.38670557 -11.25 11.6875 C-7.04124905 8.14903161 -3.50899903 4.22176446 0 0 Z " fill="#044AF3" transform="translate(132,46)"/>
<path d="M0 0 C5.94913561 1.64045932 11.02781239 4.63112714 16.375 7.625 C23.10307359 11.35030558 29.8443474 14.98969414 36.75 18.375 C38.01614626 19.00807313 39.28179446 19.64214365 40.546875 20.27734375 C42.75324709 21.3780339 44.97120377 22.45599201 47.203125 23.50390625 C48.12609375 23.97699219 49.0490625 24.45007813 50 24.9375 C50.78375 25.31777344 51.5675 25.69804687 52.375 26.08984375 C55.06958222 29.25727333 54.30117652 33.01411693 54 37 C50.30121262 38.54481929 46.58973057 40.05646767 42.875 41.5625 C41.82828125 42.00013672 40.7815625 42.43777344 39.703125 42.88867188 C38.68476562 43.29794922 37.66640625 43.70722656 36.6171875 44.12890625 C35.68503418 44.51119385 34.75288086 44.89348145 33.79248047 45.28735352 C29.60330717 46.35643875 26.49748682 45.70149634 22.61669922 43.88354492 C21.85373535 43.42052979 21.09077148 42.95751465 20.3046875 42.48046875 C19.43279785 41.95831787 18.5609082 41.43616699 17.66259766 40.89819336 C16.74269043 40.33366455 15.8227832 39.76913574 14.875 39.1875 C12.92200643 38.00499124 10.96887818 36.82270489 9.015625 35.640625 C8.02369141 35.03669922 7.03175781 34.43277344 6.00976562 33.81054688 C3.0636187 32.0382703 0.09358277 30.31663807 -2.890625 28.609375 C-4.27483643 27.80850464 -4.27483643 27.80850464 -5.68701172 26.99145508 C-7.45339503 25.97028979 -9.22574365 24.95936153 -11.00439453 23.9597168 C-11.79442871 23.49734619 -12.58446289 23.03497559 -13.3984375 22.55859375 C-14.09630371 22.15954834 -14.79416992 21.76050293 -15.51318359 21.34936523 C-16.24915771 20.68142944 -16.24915771 20.68142944 -17 20 C-17 16 -17 16 -15.54711914 14.18481445 C-14.88317139 13.5837085 -14.21922363 12.98260254 -13.53515625 12.36328125 C-12.81779297 11.70392578 -12.10042969 11.04457031 -11.36132812 10.36523438 C-10.60271484 9.68783203 -9.84410156 9.01042969 -9.0625 8.3125 C-8.30775391 7.62349609 -7.55300781 6.93449219 -6.77539062 6.22460938 C-5.38215211 4.95382591 -3.9848194 3.68750759 -2.58227539 2.42700195 C-1.70506279 1.63587286 -0.83528055 0.83528055 0 0 Z " fill="#FAFAFB" transform="translate(77,119)"/>
<path d="M0 0 C8.69517537 4.9521339 17.36684064 9.9402729 26 15 C25.01 16.485 25.01 16.485 24 18 C15.42 13.05 6.84 8.1 -2 3 C-1.34 2.67 -0.68 2.34 0 2 C0 1.34 0 0.68 0 0 Z " fill="#151720" transform="translate(127,106)"/>
<path d="M0 0 C4.72701898 1.37097831 8.48082695 3.36015206 12.625 6 C17.68793086 9.22352993 17.68793086 9.22352993 23 12 C21.31152344 13.15185547 21.31152344 13.15185547 19 14 C16.61816406 13.12548828 16.61816406 13.12548828 14.015625 11.5703125 C13.08105469 11.02246094 12.14648438 10.47460938 11.18359375 9.91015625 C10.21550781 9.32105469 9.24742188 8.73195313 8.25 8.125 C7.26644531 7.54363281 6.28289063 6.96226563 5.26953125 6.36328125 C2.83747518 4.92293736 0.41526709 3.46826477 -2 2 C-1.34 1.34 -0.68 0.68 0 0 Z " fill="#0E1321" transform="translate(40,60)"/>
<path d="M0 0 C4.50802601 1.25805377 7.4912812 2.90407165 11 6 C8.34501768 7.0169313 7.30844625 7.13022151 4.640625 6.00390625 C3.85171875 5.52824219 3.0628125 5.05257812 2.25 4.5625 C1.45078125 4.08941406 0.6515625 3.61632813 -0.171875 3.12890625 C-0.77515625 2.75636719 -1.3784375 2.38382813 -2 2 C-1.34 1.34 -0.68 0.68 0 0 Z " fill="#141926" transform="translate(40,60)"/>
<path d="M0 0 C2.5 1.3125 2.5 1.3125 5 3 C5 3.99 5 4.98 5 6 C2.08482708 4.92598892 0.22189824 4.22189824 -2 2 C-1.34 2 -0.68 2 0 2 C0 1.34 0 0.68 0 0 Z " fill="#1A1D24" transform="translate(127,106)"/>
</svg>
